<svg width="24" height="24" viewBox="0 0 24 24" fill="none" xmlns="http://www.w3.org/2000/svg">
<path d="M6.94429 2.60493L8.31704 2.19145C8.94193 2.00293 9.61408 2.04825 10.208 2.31897C10.8019 2.58968 11.277 3.06728 11.5447 3.66261L12.3989 5.56296C12.6291 6.0749 12.6932 6.64606 12.5823 7.19629C12.4713 7.74653 12.1909 8.24822 11.7803 8.63097L10.2877 10.0227C10.2692 10.04 10.2541 10.0604 10.243 10.0831C10.0867 10.4023 10.3241 11.2549 11.0675 12.5433C11.906 13.9954 12.5535 14.5693 12.8537 14.4809L14.8128 13.8813C15.3493 13.7175 15.9236 13.7256 16.4553 13.9046C16.9869 14.0836 17.4492 14.4245 17.7774 14.8795L18.9914 16.5607C19.3725 17.0885 19.5491 17.7368 19.4882 18.3851C19.4274 19.0333 19.1333 19.6374 18.6606 20.0852L17.6162 21.0734C17.253 21.4174 16.8119 21.6684 16.3307 21.8051C15.8494 21.9418 15.3423 21.96 14.8525 21.8581C11.9441 21.2528 9.33833 18.9109 7.01293 14.8836C4.6867 10.8538 3.96146 7.42196 4.89592 4.59955C5.05234 4.12703 5.32021 3.69911 5.67688 3.35194C6.03355 3.00477 6.46855 2.74855 6.94512 2.60493H6.94429ZM7.30319 3.79244C7.01723 3.87857 6.75621 4.03227 6.54218 4.24054C6.32815 4.44882 6.1674 4.70555 6.0735 4.98905C5.26805 7.42113 5.92052 10.5106 8.08714 14.2634C10.2521 18.0136 12.599 20.1224 15.1047 20.6433C15.3987 20.7045 15.7032 20.6935 15.992 20.6115C16.2809 20.5294 16.5456 20.3786 16.7636 20.172L17.8072 19.1846C18.0618 18.9436 18.2203 18.6183 18.2531 18.2692C18.286 17.9202 18.191 17.571 17.9858 17.2867L16.7718 15.6047C16.5952 15.3598 16.3463 15.1763 16.0601 15.0799C15.7739 14.9835 15.4647 14.979 15.1758 15.0672L13.2118 15.6684C12.1252 15.9917 11.1031 15.0862 9.99328 13.1627C9.05303 11.5352 8.72721 10.3593 9.12911 9.53814C9.20684 9.37937 9.31269 9.2363 9.4417 9.11557L10.9344 7.7238C11.1555 7.5177 11.3066 7.24753 11.3664 6.95119C11.4261 6.65486 11.3916 6.34725 11.2676 6.07154L10.4134 4.17202C10.2693 3.85137 10.0134 3.59414 9.69353 3.44835C9.37365 3.30257 9.01164 3.27819 8.67511 3.37979L7.30236 3.79327L7.30319 3.79244Z" fill="white"/>
</svg>
